<svg width="114" height="61" viewBox="0 0 114 61" fill="none" xmlns="http://www.w3.org/2000/svg">
<g clip-path="url(#clip0_582_3597)">
<path d="M65.9419 10.2881V32.3187H60.6679L52.9572 19.3674L51.0546 15.7624H51.0212L51.1547 19.5676V32.3187H47.0156V10.2881H52.2562L59.9669 23.206L61.8696 26.8444H61.9363L61.8028 23.0391V10.2881H65.9419ZM74.6292 10.2881V32.3187H70.0228V10.2881H74.6292ZM102.654 10.2881V32.3187H98.4813V20.8361L98.7149 14.3938H98.6482L92.5397 32.3187H88.7678L82.6928 14.3938H82.626L82.8597 20.8361V32.3187H78.6872V10.2881H85.363L89.3352 22.3048L90.7372 27.2784H90.8039L92.2393 22.3382L96.1781 10.2881H102.654ZM111.321 10.2881V32.3187H106.714V10.2881H111.321Z" fill="white"/>
<path d="M50.781 43.784C50.0489 43.784 49.4141 43.6244 48.8767 43.305C48.3471 42.9779 47.9343 42.5183 47.6383 41.9264C47.3502 41.3345 47.2061 40.6296 47.2061 39.8118C47.2061 38.994 47.3579 38.2891 47.6617 37.6972C47.9732 37.1053 48.4055 36.6497 48.9585 36.3303C49.5115 36.0032 50.1462 35.8396 50.8628 35.8396C51.6261 35.8396 52.2453 35.9838 52.7204 36.2719C53.2033 36.5601 53.5927 37.004 53.8887 37.6038L53.0358 38.0711C52.8645 37.6271 52.5919 37.2922 52.218 37.0663C51.8519 36.8327 51.4002 36.7159 50.8628 36.7159C50.341 36.7159 49.8775 36.8405 49.4725 37.0897C49.0753 37.3311 48.7599 37.6855 48.5262 38.1529C48.3003 38.6124 48.1874 39.1653 48.1874 39.8118C48.1874 40.4583 48.2848 41.0152 48.4795 41.4825C48.682 41.942 48.9779 42.2964 49.3674 42.5456C49.7646 42.787 50.2475 42.9078 50.8161 42.9078C51.1354 42.9078 51.4313 42.8688 51.704 42.791C51.9844 42.7053 52.2258 42.5807 52.4283 42.4171C52.6386 42.2536 52.8022 42.0472 52.919 41.7979C53.0358 41.5487 53.0942 41.2566 53.0942 40.9217V40.653H50.6408V39.7768H53.9471V43.6672H53.2111L53.1643 42.2302L53.3629 42.2652C53.1604 42.7482 52.8411 43.122 52.4049 43.3868C51.9688 43.6516 51.4275 43.784 50.781 43.784ZM55.485 43.6672V37.8257H56.2444L56.3729 38.7837C56.5364 38.4255 56.7739 38.1568 57.0855 37.9776C57.4048 37.7985 57.7903 37.7089 58.2421 37.7089C58.3434 37.7089 58.4524 37.7167 58.5693 37.7323C58.6938 37.7479 58.799 37.779 58.8847 37.8257L58.7211 38.6786C58.6354 38.6475 58.542 38.6241 58.4407 38.6085C58.3394 38.5929 58.1954 38.5851 58.0085 38.5851C57.767 38.5851 57.5216 38.6552 57.2724 38.7954C57.0309 38.9356 56.8285 39.1498 56.6649 39.438C56.5014 39.7184 56.4196 40.0766 56.4196 40.5128V43.6672H55.485ZM62.0224 37.7089C62.5754 37.7089 63.0622 37.8297 63.4827 38.0711C63.9112 38.3125 64.2461 38.663 64.4875 39.1225C64.729 39.5743 64.8496 40.1156 64.8496 40.7465C64.8496 41.3773 64.729 41.9225 64.4875 42.3821C64.2461 42.8338 63.9112 43.1804 63.4827 43.4218C63.0622 43.6633 62.5754 43.784 62.0224 43.784C61.4772 43.784 60.9904 43.6633 60.562 43.4218C60.1337 43.1804 59.7988 42.8338 59.5573 42.3821C59.3159 41.9225 59.1951 41.3773 59.1951 40.7465C59.1951 40.1156 59.3159 39.5743 59.5573 39.1225C59.7988 38.663 60.1337 38.3125 60.562 38.0711C60.9904 37.8297 61.4772 37.7089 62.0224 37.7089ZM62.0224 38.515C61.6252 38.515 61.2864 38.6046 61.006 38.7837C60.7256 38.9629 60.5075 39.2199 60.3517 39.5548C60.2038 39.8819 60.1298 40.2791 60.1298 40.7465C60.1298 41.206 60.2038 41.6032 60.3517 41.9381C60.5075 42.273 60.7256 42.53 61.006 42.7092C61.2864 42.8884 61.6252 42.9779 62.0224 42.9779C62.4196 42.9779 62.7584 42.8884 63.0388 42.7092C63.3192 42.53 63.5334 42.273 63.6814 41.9381C63.8372 41.6032 63.915 41.206 63.915 40.7465C63.915 40.2791 63.8372 39.8819 63.6814 39.5548C63.5334 39.2199 63.3192 38.9629 63.0388 38.7837C62.7584 38.6046 62.4196 38.515 62.0224 38.515ZM73.2845 37.8257H74.3243L72.2915 43.6672H71.3568L69.7096 39.0174L68.1557 43.6672H67.2211L65.1883 37.8257H66.2281L67.7001 42.5807L69.289 37.8257H70.2236L71.8125 42.5807L73.2845 37.8257ZM87.3017 35.9565V36.8327H84.6147V43.6672H83.68V36.8327H80.9926V35.9565H87.3017ZM89.418 37.7089C89.9713 37.7089 90.4578 37.8297 90.8784 38.0711C91.3065 38.3125 91.6419 38.663 91.8831 39.1225C92.1243 39.5743 92.2453 40.1156 92.2453 40.7465C92.2453 41.3773 92.1243 41.9225 91.8831 42.3821C91.6419 42.8338 91.3065 43.1804 90.8784 43.4218C90.4578 43.6633 89.9713 43.784 89.418 43.784C88.8731 43.784 88.3857 43.6633 87.9577 43.4218C87.5296 43.1804 87.1941 42.8338 86.9529 42.3821C86.7118 41.9225 86.5908 41.3773 86.5908 40.7465C86.5908 40.1156 86.7118 39.5743 86.9529 39.1225C87.1941 38.663 87.5296 38.3125 87.9577 38.0711C88.3857 37.8297 88.8731 37.7089 89.418 37.7089ZM89.418 38.515C89.0208 38.515 88.682 38.6046 88.4016 38.7837C88.1212 38.9629 87.9034 39.2199 87.7474 39.5548C87.5997 39.8819 87.5254 40.2791 87.5254 40.7465C87.5254 41.206 87.5997 41.6032 87.7474 41.9381C87.9034 42.273 88.1212 42.53 88.4016 42.7092C88.682 42.8884 89.0208 42.9779 89.418 42.9779C89.8152 42.9779 90.154 42.8884 90.4344 42.7092C90.7148 42.53 90.9293 42.273 91.077 41.9381C91.233 41.6032 91.3106 41.206 91.3106 40.7465C91.3106 40.2791 91.233 39.8819 91.077 39.5548C90.9293 39.2199 90.7148 38.9629 90.4344 38.7837C90.154 38.6046 89.8152 38.515 89.418 38.515ZM95.8152 43.784C95.3329 43.784 94.8889 43.6633 94.4834 43.4218C94.0787 43.1804 93.7557 42.8338 93.5137 42.3821C93.2725 41.9225 93.1515 41.3773 93.1515 40.7465C93.1515 40.1 93.28 39.5509 93.5371 39.0992C93.7941 38.6475 94.1329 38.3047 94.5535 38.0711C94.9741 37.8297 95.4264 37.7089 95.9087 37.7089C96.3919 37.7089 96.8083 37.8335 97.1588 38.0828C97.5176 38.332 97.7546 38.663 97.8714 39.0758L97.7546 39.1576V35.1387H98.6892V43.6672H97.8714L97.7896 42.2536L97.9182 42.1835C97.8639 42.5262 97.7312 42.8183 97.5209 43.0597C97.319 43.2933 97.0653 43.4725 96.7615 43.5971C96.4661 43.7217 96.1507 43.784 95.8152 43.784ZM95.9087 42.9662C96.2826 42.9662 96.6063 42.8727 96.8784 42.6858C97.1588 42.4989 97.3732 42.2341 97.5209 41.8914C97.677 41.5409 97.7546 41.132 97.7546 40.6647C97.7546 40.2207 97.677 39.8391 97.5209 39.5198C97.3732 39.2004 97.1629 38.9551 96.8901 38.7837C96.6255 38.6124 96.3143 38.5267 95.9554 38.5267C95.3638 38.5267 94.904 38.7292 94.5768 39.1342C94.2497 39.5392 94.0862 40.0766 94.0862 40.7465C94.0862 41.4163 94.2464 41.9537 94.5652 42.3587C94.8848 42.7637 95.3329 42.9662 95.9087 42.9662ZM103.806 39.8936C103.806 39.4574 103.689 39.1225 103.456 38.8889C103.222 38.6475 102.891 38.5267 102.463 38.5267C102.057 38.5267 101.715 38.6163 101.435 38.7954C101.154 38.9667 100.947 39.2471 100.816 39.6366L100.056 39.1693C100.211 38.7331 100.5 38.3826 100.921 38.1178C101.341 37.8452 101.863 37.7089 102.486 37.7089C102.907 37.7089 103.288 37.7829 103.631 37.9309C103.973 38.0711 104.242 38.2891 104.437 38.5851C104.639 38.8733 104.741 39.2471 104.741 39.7067V42.5339C104.741 42.8143 104.889 42.9545 105.185 42.9545C105.333 42.9545 105.477 42.9351 105.617 42.8961L105.57 43.6321C105.414 43.71 105.212 43.749 104.963 43.749C104.737 43.749 104.534 43.7062 104.355 43.6205C104.176 43.5348 104.036 43.4062 103.935 43.2349C103.833 43.0558 103.783 42.8338 103.783 42.569V42.4522L104.017 42.4872C103.923 42.791 103.763 43.0402 103.538 43.2349C103.311 43.4218 103.059 43.562 102.778 43.6555C102.498 43.7412 102.221 43.784 101.949 43.784C101.606 43.784 101.286 43.7256 100.991 43.6088C100.695 43.4919 100.457 43.3167 100.278 43.083C100.106 42.8416 100.021 42.5456 100.021 42.1951C100.021 41.7589 100.165 41.4007 100.453 41.1203C100.749 40.8322 101.158 40.6374 101.68 40.5362L103.993 40.0805V40.8516L102.112 41.2371C101.73 41.315 101.446 41.4241 101.259 41.5643C101.073 41.7045 100.979 41.8991 100.979 42.1484C100.979 42.3898 101.073 42.5884 101.259 42.7442C101.454 42.8922 101.727 42.9662 102.077 42.9662C102.303 42.9662 102.517 42.9389 102.72 42.8844C102.93 42.8221 103.117 42.7326 103.281 42.6157C103.444 42.4911 103.573 42.3393 103.666 42.1601C103.76 41.9732 103.806 41.7551 103.806 41.5059V39.8936ZM111.004 37.8257L108.258 44.6485C108.111 45.0302 107.947 45.3301 107.768 45.5481C107.597 45.774 107.402 45.9337 107.184 46.0271C106.973 46.1284 106.728 46.179 106.447 46.179C106.183 46.179 105.938 46.14 105.711 46.0622C105.494 45.9921 105.299 45.8947 105.127 45.7701L105.384 44.9523C105.54 45.0925 105.704 45.1937 105.875 45.2561C106.054 45.3262 106.23 45.3612 106.401 45.3612C106.604 45.3612 106.795 45.2989 106.973 45.1743C107.153 45.0497 107.316 44.7965 107.464 44.4149L107.768 43.6555L107.184 42.2652L105.326 37.8257H106.389L107.849 41.6344L108.212 42.6741L108.632 41.5175L109.999 37.8257H111.004Z" fill="url(#paint0_linear_582_3597)"/>
<path d="M50.781 43.784C50.0489 43.784 49.4141 43.6244 48.8767 43.305C48.3471 42.9779 47.9343 42.5183 47.6383 41.9264C47.3502 41.3345 47.2061 40.6296 47.2061 39.8118C47.2061 38.994 47.3579 38.2891 47.6617 37.6972C47.9732 37.1053 48.4055 36.6497 48.9585 36.3303C49.5115 36.0032 50.1462 35.8396 50.8628 35.8396C51.6261 35.8396 52.2453 35.9838 52.7204 36.2719C53.2033 36.5601 53.5927 37.004 53.8887 37.6038L53.0358 38.0711C52.8645 37.6271 52.5919 37.2922 52.218 37.0663C51.8519 36.8327 51.4002 36.7159 50.8628 36.7159C50.341 36.7159 49.8775 36.8405 49.4725 37.0897C49.0753 37.3311 48.7599 37.6855 48.5262 38.1529C48.3003 38.6124 48.1874 39.1653 48.1874 39.8118C48.1874 40.4583 48.2848 41.0152 48.4795 41.4825C48.682 41.942 48.9779 42.2964 49.3674 42.5456C49.7646 42.787 50.2475 42.9078 50.8161 42.9078C51.1354 42.9078 51.4313 42.8688 51.704 42.791C51.9844 42.7053 52.2258 42.5807 52.4283 42.4171C52.6386 42.2536 52.8022 42.0472 52.919 41.7979C53.0358 41.5487 53.0942 41.2566 53.0942 40.9217V40.653H50.6408V39.7768H53.9471V43.6672H53.2111L53.1643 42.2302L53.3629 42.2652C53.1604 42.7482 52.8411 43.122 52.4049 43.3868C51.9688 43.6516 51.4275 43.784 50.781 43.784ZM55.485 43.6672V37.8257H56.2444L56.3729 38.7837C56.5364 38.4255 56.7739 38.1568 57.0855 37.9776C57.4048 37.7985 57.7903 37.7089 58.2421 37.7089C58.3434 37.7089 58.4524 37.7167 58.5693 37.7323C58.6938 37.7479 58.799 37.779 58.8847 37.8257L58.7211 38.6786C58.6354 38.6475 58.542 38.6241 58.4407 38.6085C58.3394 38.5929 58.1954 38.5851 58.0085 38.5851C57.767 38.5851 57.5216 38.6552 57.2724 38.7954C57.0309 38.9356 56.8285 39.1498 56.6649 39.438C56.5014 39.7184 56.4196 40.0766 56.4196 40.5128V43.6672H55.485ZM62.0224 37.7089C62.5754 37.7089 63.0622 37.8297 63.4827 38.0711C63.9112 38.3125 64.2461 38.663 64.4875 39.1225C64.729 39.5743 64.8496 40.1156 64.8496 40.7465C64.8496 41.3773 64.729 41.9225 64.4875 42.3821C64.2461 42.8338 63.9112 43.1804 63.4827 43.4218C63.0622 43.6633 62.5754 43.784 62.0224 43.784C61.4772 43.784 60.9904 43.6633 60.562 43.4218C60.1337 43.1804 59.7988 42.8338 59.5573 42.3821C59.3159 41.9225 59.1951 41.3773 59.1951 40.7465C59.1951 40.1156 59.3159 39.5743 59.5573 39.1225C59.7988 38.663 60.1337 38.3125 60.562 38.0711C60.9904 37.8297 61.4772 37.7089 62.0224 37.7089ZM62.0224 38.515C61.6252 38.515 61.2864 38.6046 61.006 38.7837C60.7256 38.9629 60.5075 39.2199 60.3517 39.5548C60.2038 39.8819 60.1298 40.2791 60.1298 40.7465C60.1298 41.206 60.2038 41.6032 60.3517 41.9381C60.5075 42.273 60.7256 42.53 61.006 42.7092C61.2864 42.8884 61.6252 42.9779 62.0224 42.9779C62.4196 42.9779 62.7584 42.8884 63.0388 42.7092C63.3192 42.53 63.5334 42.273 63.6814 41.9381C63.8372 41.6032 63.915 41.206 63.915 40.7465C63.915 40.2791 63.8372 39.8819 63.6814 39.5548C63.5334 39.2199 63.3192 38.9629 63.0388 38.7837C62.7584 38.6046 62.4196 38.515 62.0224 38.515ZM73.2845 37.8257H74.3243L72.2915 43.6672H71.3568L69.7096 39.0174L68.1557 43.6672H67.2211L65.1883 37.8257H66.2281L67.7001 42.5807L69.289 37.8257H70.2236L71.8125 42.5807L73.2845 37.8257ZM87.3017 35.9565V36.8327H84.6147V43.6672H83.68V36.8327H80.9926V35.9565H87.3017ZM89.418 37.7089C89.9713 37.7089 90.4578 37.8297 90.8784 38.0711C91.3065 38.3125 91.6419 38.663 91.8831 39.1225C92.1243 39.5743 92.2453 40.1156 92.2453 40.7465C92.2453 41.3773 92.1243 41.9225 91.8831 42.3821C91.6419 42.8338 91.3065 43.1804 90.8784 43.4218C90.4578 43.6633 89.9713 43.784 89.418 43.784C88.8731 43.784 88.3857 43.6633 87.9577 43.4218C87.5296 43.1804 87.1941 42.8338 86.9529 42.3821C86.7118 41.9225 86.5908 41.3773 86.5908 40.7465C86.5908 40.1156 86.7118 39.5743 86.9529 39.1225C87.1941 38.663 87.5296 38.3125 87.9577 38.0711C88.3857 37.8297 88.8731 37.7089 89.418 37.7089ZM89.418 38.515C89.0208 38.515 88.682 38.6046 88.4016 38.7837C88.1212 38.9629 87.9034 39.2199 87.7474 39.5548C87.5997 39.8819 87.5254 40.2791 87.5254 40.7465C87.5254 41.206 87.5997 41.6032 87.7474 41.9381C87.9034 42.273 88.1212 42.53 88.4016 42.7092C88.682 42.8884 89.0208 42.9779 89.418 42.9779C89.8152 42.9779 90.154 42.8884 90.4344 42.7092C90.7148 42.53 90.9293 42.273 91.077 41.9381C91.233 41.6032 91.3106 41.206 91.3106 40.7465C91.3106 40.2791 91.233 39.8819 91.077 39.5548C90.9293 39.2199 90.7148 38.9629 90.4344 38.7837C90.154 38.6046 89.8152 38.515 89.418 38.515ZM95.8152 43.784C95.3329 43.784 94.8889 43.6633 94.4834 43.4218C94.0787 43.1804 93.7557 42.8338 93.5137 42.3821C93.2725 41.9225 93.1515 41.3773 93.1515 40.7465C93.1515 40.1 93.28 39.5509 93.5371 39.0992C93.7941 38.6475 94.1329 38.3047 94.5535 38.0711C94.9741 37.8297 95.4264 37.7089 95.9087 37.7089C96.3919 37.7089 96.8083 37.8335 97.1588 38.0828C97.5176 38.332 97.7546 38.663 97.8714 39.0758L97.7546 39.1576V35.1387H98.6892V43.6672H97.8714L97.7896 42.2536L97.9182 42.1835C97.8639 42.5262 97.7312 42.8183 97.5209 43.0597C97.319 43.2933 97.0653 43.4725 96.7615 43.5971C96.4661 43.7217 96.1507 43.784 95.8152 43.784ZM95.9087 42.9662C96.2826 42.9662 96.6063 42.8727 96.8784 42.6858C97.1588 42.4989 97.3732 42.2341 97.5209 41.8914C97.677 41.5409 97.7546 41.132 97.7546 40.6647C97.7546 40.2207 97.677 39.8391 97.5209 39.5198C97.3732 39.2004 97.1629 38.9551 96.8901 38.7837C96.6255 38.6124 96.3143 38.5267 95.9554 38.5267C95.3638 38.5267 94.904 38.7292 94.5768 39.1342C94.2497 39.5392 94.0862 40.0766 94.0862 40.7465C94.0862 41.4163 94.2464 41.9537 94.5652 42.3587C94.8848 42.7637 95.3329 42.9662 95.9087 42.9662ZM103.806 39.8936C103.806 39.4574 103.689 39.1225 103.456 38.8889C103.222 38.6475 102.891 38.5267 102.463 38.5267C102.057 38.5267 101.715 38.6163 101.435 38.7954C101.154 38.9667 100.947 39.2471 100.816 39.6366L100.056 39.1693C100.211 38.7331 100.5 38.3826 100.921 38.1178C101.341 37.8452 101.863 37.7089 102.486 37.7089C102.907 37.7089 103.288 37.7829 103.631 37.9309C103.973 38.0711 104.242 38.2891 104.437 38.5851C104.639 38.8733 104.741 39.2471 104.741 39.7067V42.5339C104.741 42.8143 104.889 42.9545 105.185 42.9545C105.333 42.9545 105.477 42.9351 105.617 42.8961L105.57 43.6321C105.414 43.71 105.212 43.749 104.963 43.749C104.737 43.749 104.534 43.7062 104.355 43.6205C104.176 43.5348 104.036 43.4062 103.935 43.2349C103.833 43.0558 103.783 42.8338 103.783 42.569V42.4522L104.017 42.4872C103.923 42.791 103.763 43.0402 103.538 43.2349C103.311 43.4218 103.059 43.562 102.778 43.6555C102.498 43.7412 102.221 43.784 101.949 43.784C101.606 43.784 101.286 43.7256 100.991 43.6088C100.695 43.4919 100.457 43.3167 100.278 43.083C100.106 42.8416 100.021 42.5456 100.021 42.1951C100.021 41.7589 100.165 41.4007 100.453 41.1203C100.749 40.8322 101.158 40.6374 101.68 40.5362L103.993 40.0805V40.8516L102.112 41.2371C101.73 41.315 101.446 41.4241 101.259 41.5643C101.073 41.7045 100.979 41.8991 100.979 42.1484C100.979 42.3898 101.073 42.5884 101.259 42.7442C101.454 42.8922 101.727 42.9662 102.077 42.9662C102.303 42.9662 102.517 42.9389 102.72 42.8844C102.93 42.8221 103.117 42.7326 103.281 42.6157C103.444 42.4911 103.573 42.3393 103.666 42.1601C103.76 41.9732 103.806 41.7551 103.806 41.5059V39.8936ZM111.004 37.8257L108.258 44.6485C108.111 45.0302 107.947 45.3301 107.768 45.5481C107.597 45.774 107.402 45.9337 107.184 46.0271C106.973 46.1284 106.728 46.179 106.447 46.179C106.183 46.179 105.938 46.14 105.711 46.0622C105.494 45.9921 105.299 45.8947 105.127 45.7701L105.384 44.9523C105.54 45.0925 105.704 45.1937 105.875 45.2561C106.054 45.3262 106.23 45.3612 106.401 45.3612C106.604 45.3612 106.795 45.2989 106.973 45.1743C107.153 45.0497 107.316 44.7965 107.464 44.4149L107.768 43.6555L107.184 42.2652L105.326 37.8257H106.389L107.849 41.6344L108.212 42.6741L108.632 41.5175L109.999 37.8257H111.004Z" fill="#FF6600"/>
<path d="M3.29202 14.916C1.2444 16.1943 0 18.438 0 20.8521V49.873L11.9386 44.1046V36.753C8.35727 37.6626 5.84223 37.4735 5.84223 37.4735C8.12795 37.0804 10.1624 36.3795 11.9386 35.5357V31.9668C10.7085 32.6056 9.35841 33.179 7.89196 33.6294C7.89196 33.6294 9.6625 32.5863 11.9386 30.5471V9.51758L3.29202 14.916Z" fill="url(#paint1_linear_582_3597)"/>
<path d="M29.6924 16.9711V34.0346C31.364 36.3509 33.334 38.7856 35.6528 41.2631C35.6528 41.2631 32.9962 39.2911 29.6924 35.9651V39.4952C30.7973 40.4567 31.5209 40.9847 31.5209 40.9847C30.8857 40.7633 30.2761 40.5102 29.6924 40.2333V51.0946L37.6773 46.0148C40.0947 44.8467 41.6309 42.3985 41.6309 39.7136V9.51758L29.6924 16.9711Z" fill="url(#paint2_linear_582_3597)"/>
<path d="M14.834 7.74258V27.621C17.2631 24.8475 19.6917 21.1353 20.9281 16.5262L20.9735 16.8172C20.9735 16.8172 22.2248 22.1922 26.7724 29.6444V0.357422L14.834 7.74258Z" fill="url(#paint3_linear_582_3597)"/>
<path d="M14.834 35.8315V60.3199L26.7724 52.9057V38.5337C22.9242 35.8624 20.8019 32.5908 20.8019 32.5908C18.7579 34.0715 16.7194 35.1071 14.834 35.8315Z" fill="url(#paint4_linear_582_3597)"/>
<path d="M14.834 30.2147V33.9124C18.7638 31.3528 20.8019 28.4772 20.8019 28.4772C22.448 31.752 24.7341 34.5756 26.7724 36.7073V32.8232C24.6867 30.4192 22.5736 27.5989 20.8552 24.4912C20.8552 24.4912 18.7649 27.4802 14.834 30.2147Z" fill="url(#paint5_linear_582_3597)"/>
</g>
<defs>
<linearGradient id="paint0_linear_582_3597" x1="78.7757" y1="36.3237" x2="78.7757" y2="43.7506" gradientUnits="userSpaceOnUse">
<stop offset="0.628125" stop-color="#0B1B35"/>
<stop offset="1" stop-color="#FF6302"/>
</linearGradient>
<linearGradient id="paint1_linear_582_3597" x1="20.8156" y1="0.357879" x2="20.8156" y2="60.3206" gradientUnits="userSpaceOnUse">
<stop stop-color="#FD9346"/>
<stop offset="0.00372451" stop-color="#FD9346"/>
<stop offset="0.538922" stop-color="#FE7218"/>
<stop offset="1" stop-color="#FF6200"/>
</linearGradient>
<linearGradient id="paint2_linear_582_3597" x1="20.8154" y1="0.357864" x2="20.8154" y2="60.3206" gradientUnits="userSpaceOnUse">
<stop stop-color="#FD9346"/>
<stop offset="0.00372451" stop-color="#FD9346"/>
<stop offset="0.538922" stop-color="#FE7218"/>
<stop offset="1" stop-color="#FF6200"/>
</linearGradient>
<linearGradient id="paint3_linear_582_3597" x1="20.8155" y1="0.357456" x2="20.8155" y2="60.3201" gradientUnits="userSpaceOnUse">
<stop stop-color="#FD9346"/>
<stop offset="0.00372451" stop-color="#FD9346"/>
<stop offset="0.538922" stop-color="#FE7218"/>
<stop offset="1" stop-color="#FF6200"/>
</linearGradient>
<linearGradient id="paint4_linear_582_3597" x1="20.8155" y1="0.35734" x2="20.8155" y2="60.32" gradientUnits="userSpaceOnUse">
<stop stop-color="#FD9346"/>
<stop offset="0.00372451" stop-color="#FD9346"/>
<stop offset="0.538922" stop-color="#FE7218"/>
<stop offset="1" stop-color="#FF6200"/>
</linearGradient>
<linearGradient id="paint5_linear_582_3597" x1="20.8155" y1="0.357803" x2="20.8155" y2="60.3205" gradientUnits="userSpaceOnUse">
<stop stop-color="#FD9346"/>
<stop offset="0.00372451" stop-color="#FD9346"/>
<stop offset="0.538922" stop-color="#FE7218"/>
<stop offset="1" stop-color="#FF6200"/>
</linearGradient>
<clipPath id="clip0_582_3597">
<rect width="113.408" height="60" fill="white" transform="translate(0 0.357422)"/>
</clipPath>
</defs>
</svg>
